<?xml version="1.0" encoding="UTF-8"?>
<svg version="1.1" xmlns="http://www.w3.org/2000/svg" width="512" height="512">
<path d="M0 0 C1.28115488 -0.00583219 2.56230975 -0.01166439 3.8822875 -0.01767331 C5.31742748 -0.01403955 6.75256698 -0.01021514 8.18770599 -0.00622082 C9.70181038 -0.0092386 11.21591324 -0.0131262 12.73001337 -0.01781338 C16.90603706 -0.02815016 21.08197546 -0.02589722 25.25800633 -0.02163279 C29.75567519 -0.01917583 34.25332295 -0.02816681 38.75098419 -0.03567028 C47.56797606 -0.04844777 56.38493751 -0.05020721 65.20193708 -0.04787002 C72.36482481 -0.04609022 79.52770328 -0.0478292 86.6905899 -0.05209446 C88.21715363 -0.05298724 88.21715363 -0.05298724 89.77455702 -0.05389806 C91.8417215 -0.05510975 93.90888597 -0.05632389 95.97605044 -0.05754044 C115.38042477 -0.06842758 134.78478175 -0.06624784 154.18915707 -0.06015559 C171.96094862 -0.05498446 189.7326854 -0.06624497 207.50446612 -0.08525381 C225.73164431 -0.10460105 243.95879655 -0.11289376 262.18598509 -0.10913056 C272.42756928 -0.10721389 282.66910683 -0.10975128 292.91068268 -0.1238451 C301.62856424 -0.13572022 310.34637045 -0.13720746 319.06425297 -0.12505493 C323.51609944 -0.1191391 327.9678078 -0.11814085 332.41964531 -0.13005733 C336.48945601 -0.14082507 340.5590118 -0.13792285 344.62881011 -0.12379565 C346.10656871 -0.12112336 347.58434671 -0.12359353 349.0620864 -0.13153151 C351.05998012 -0.1415245 353.05794481 -0.1314927 355.05583191 -0.12025452 C356.72535486 -0.12033704 356.72535486 -0.12033704 358.42860556 -0.12042123 C359.28637799 0.00329472 360.14415042 0.12701067 361.02791595 0.25447559 C363.33495883 3.7150399 363.27693597 4.99605904 363.27401161 9.07408142 C363.27799371 10.29575962 363.28197581 11.51743782 363.28607857 12.77613658 C363.28037213 14.13896807 363.27448093 15.5017988 363.26842499 16.86462879 C363.26929666 18.30677405 363.27104692 19.74891901 363.27360332 21.19106227 C363.2780885 25.16347378 363.27005717 29.13577804 363.2600472 33.10817587 C363.2514318 37.38832676 363.2543315 41.66847131 363.25585175 45.94862843 C363.25690181 53.36744788 363.25061254 60.78623222 363.23937607 68.20504284 C363.22314045 78.93146923 363.21791505 89.6578786 363.21540008 100.38431595 C363.21101993 117.78611382 363.19770215 135.18789297 363.17879486 152.58968067 C363.16044434 169.49658076 363.14628379 186.40347577 363.13777924 203.3103838 C363.13725379 204.35205708 363.13672834 205.39373037 363.13618697 206.46696951 C363.13357695 211.69259844 363.13104952 216.91822741 363.12856317 222.14385641 C363.1078207 265.51407577 363.07258646 308.88427472 363.02791595 352.25447559 C364.19351044 352.70016895 364.19351044 352.70016895 365.38265228 353.15486622 C382.80461739 360.39700105 394.60401856 379.87099421 401.73885345 396.41463184 C405.3096917 406.29957033 406.56207691 416.10569249 406.46541595 426.56697559 C406.45639252 427.74687061 406.44736908 428.92676563 406.4380722 430.14241505 C405.95986378 454.33677269 395.38961749 474.87233384 378.0708847 491.61775684 C362.19850977 505.82646981 341.85319406 512.88427596 320.71541595 512.69197559 C319.53769623 512.68440235 318.3599765 512.67682911 317.1465683 512.66902637 C307.61024997 512.4894421 297.07663618 512.09719746 288.77839184 506.82536411 C277.51961898 500.25663171 265.18140396 501.41355143 252.53817189 501.50285697 C249.06657082 501.5207026 245.59511129 501.50356292 242.12351227 501.49078846 C236.1218664 501.47331483 230.1205514 501.47730457 224.11891365 501.49602985 C215.43963983 501.52290228 206.76066958 501.51458274 198.08138373 501.49754128 C183.99394575 501.47064041 169.90662675 501.46885265 155.81917572 501.48445606 C142.14696516 501.49951842 128.47479347 501.50763534 114.80257416 501.50301075 C113.95881363 501.5027309 113.11505309 501.50245105 112.24572406 501.50216272 C103.03935305 501.49883804 93.83298706 501.49272847 84.62662029 501.48329258 C83.41422877 501.48205802 83.41422877 501.48205802 82.1773445 501.48079853 C78.94711899 501.47747147 75.71689358 501.47411412 72.48666849 501.47039911 C63.02543008 501.45958759 53.56428472 501.45750758 44.10304829 501.47109213 C38.17836852 501.47939738 32.25371118 501.48134314 26.32902644 501.47822937 C22.90797983 501.47676398 19.48701848 501.47878081 16.06598663 501.48951244 C12.36482159 501.4995583 8.66385519 501.4975814 4.96268463 501.49257374 C3.87234855 501.49860119 2.78201248 501.50462864 1.65863591 501.51083875 C0.67338656 501.50707345 -0.3118628 501.50330815 -1.32696819 501.49942875 C-2.1818864 501.50040286 -3.0368046 501.50137698 -3.91762942 501.50238061 C-5.97208405 501.25447559 -5.97208405 501.25447559 -7.97208405 499.25447559 C-8.16934988 496.55326579 -8.23975265 493.95457257 -8.22376633 491.25213337 C-8.22667321 490.41130315 -8.22958009 489.57047294 -8.23257506 488.70416301 C-8.23993729 485.85583214 -8.23290294 483.00771251 -8.22605133 480.15938282 C-8.22835331 478.10905518 -8.23152805 476.05872837 -8.23550582 474.0084033 C-8.24389862 468.35017883 -8.23970831 462.69202134 -8.23353338 457.03379655 C-8.22902813 450.94102559 -8.23598303 444.84826656 -8.24149323 438.75549793 C-8.24989355 427.50156437 -8.249136 416.24765239 -8.24367029 404.99371926 C-8.23864621 394.59852412 -8.23732248 384.20333686 -8.23971558 373.80814075 C-8.23986835 373.11955413 -8.24002112 372.43096751 -8.24017852 371.72151463 C-8.24080116 368.92656693 -8.24143795 366.13161922 -8.24209804 363.33667153 C-8.24822094 337.09888729 -8.24266137 310.86111675 -8.23190425 284.62333462 C-8.2224125 261.29448235 -8.22326173 237.9656519 -8.23282623 214.63679981 C-8.24352725 188.44809334 -8.24778677 162.25939898 -8.24160171 136.07069063 C-8.24096024 133.28073057 -8.24033456 130.4907705 -8.23971558 127.70081043 C-8.23955742 127.01381249 -8.23939927 126.32681455 -8.23923632 125.61899849 C-8.23695796 115.22838862 -8.23962826 104.8377875 -8.24467468 94.44717884 C-8.25038192 82.63680031 -8.2487943 70.82644263 -8.23811319 59.01606572 C-8.23283907 52.98454551 -8.23082919 46.95306973 -8.2374115 40.9215498 C-8.24333726 35.40846707 -8.24015213 29.89547029 -8.22945639 24.38239545 C-8.22720794 22.37974196 -8.22839063 20.37708134 -8.23320797 18.37443238 C-8.23922171 15.66845517 -8.23312126 12.96277885 -8.22376633 10.25681782 C-8.22844866 9.46528386 -8.23313099 8.67374989 -8.23795521 7.85823005 C-8.18962993 0.94400654 -6.70166527 0.00521902 0 0 Z " fill="#E9F5FE" transform="translate(56.972084045410156,-0.25447559356689453)"/>
<path d="M0 0 C1.56532392 -0.01564648 1.56532392 -0.01564648 3.16227055 -0.03160906 C4.30739329 -0.02268617 5.45251604 -0.01376328 6.63233948 -0.00457001 C8.45858054 -0.01392995 8.45858054 -0.01392995 10.32171535 -0.02347898 C13.70293777 -0.03669127 17.08327383 -0.03191277 20.46444273 -0.01953411 C24.11004942 -0.01049837 27.75557763 -0.02444597 31.40116882 -0.0354538 C38.54351914 -0.05325949 45.68570152 -0.04938997 52.82805848 -0.03780323 C58.63171917 -0.02877721 64.43533272 -0.0275413 70.23899841 -0.0318985 C71.06435921 -0.03251143 71.88972001 -0.03312436 72.74009174 -0.03375587 C74.41668869 -0.03503474 76.09328563 -0.0363316 77.76988256 -0.03764623 C93.49894265 -0.04905803 109.22790955 -0.03592894 124.95695436 -0.01444477 C138.45922902 0.00342677 151.96136613 0.00032283 165.46363831 -0.01811981 C181.13561932 -0.03951596 196.80751863 -0.04795934 212.47951221 -0.03567076 C214.15001232 -0.03439653 215.82051244 -0.03313905 217.49101257 -0.0318985 C218.31297463 -0.0312814 219.13493669 -0.03066429 219.9818067 -0.03002849 C225.77987815 -0.02657182 231.57789786 -0.03241076 237.3759613 -0.04181671 C244.43992381 -0.05302415 251.50370848 -0.05002324 258.56765056 -0.02869374 C262.17324791 -0.01816623 265.77854854 -0.01409004 269.38414383 -0.02729034 C273.28882161 -0.04136962 277.19301132 -0.02458237 281.09767151 -0.00457001 C282.24279426 -0.01349289 283.387917 -0.02241578 284.56774044 -0.03160906 C285.61128972 -0.02117807 286.654839 -0.01074708 287.73001099 0 C288.63157708 0.00064941 289.53314318 0.00129882 290.46202946 0.00196791 C293.64564192 0.66624946 294.85333569 2.00251757 296.86500549 4.50336456 C297.36837006 7.03025818 297.36837006 7.03025818 297.37294006 9.93073273 C297.38985901 11.58369102 297.38985901 11.58369102 297.40711975 13.27004242 C297.39497437 15.07646461 297.39497437 15.07646461 297.38258362 16.91938019 C297.39309753 18.82719521 297.39309753 18.82719521 297.40382385 20.77355194 C297.4220534 24.25916486 297.41499163 27.744304 297.40230751 31.22992516 C297.39217774 34.87825417 297.40157311 38.52654273 297.40785217 42.17487335 C297.41512868 48.30153433 297.40554093 54.42800241 297.38648987 60.55463409 C297.36472092 67.63708342 297.3717723 74.71907217 297.39379549 81.80151033 C297.41194953 87.88317192 297.41450786 93.96469487 297.40404081 100.0463748 C297.39780583 103.67833983 297.39697016 107.31008838 297.41018677 110.94203949 C297.42389093 114.9907533 297.40489576 119.03867355 297.38258362 123.08734894 C297.39068054 124.2916304 297.39877747 125.49591187 297.40711975 126.73668671 C297.39584045 127.83865891 297.38456116 128.9406311 297.37294006 130.0759964 C297.37067791 131.5117313 297.37067791 131.5117313 297.36837006 132.97647095 C296.70411243 136.31104887 295.47399813 137.36709572 292.86500549 139.50336456 C290.46959215 140.00591189 290.46959215 140.00591189 287.74842167 140.00952244 C286.70897248 140.02057013 285.6695233 140.03161781 284.59857565 140.04300028 C282.88775113 140.03063913 282.88775113 140.03063913 281.1423645 140.01802826 C279.92965958 140.02497379 278.71695466 140.03191932 277.4675011 140.03907531 C274.09961758 140.05422648 270.73261471 140.05138462 267.36477029 140.04092228 C263.73345161 140.03394145 260.10222405 140.0499197 256.47093201 140.06291962 C249.35632805 140.08458392 242.24188389 140.08442651 235.12725777 140.07629407 C229.34553382 140.06999908 223.56385655 140.07112649 217.7821331 140.07756615 C216.95983639 140.0784678 216.13753967 140.07936946 215.29032488 140.08029843 C213.61993066 140.0821496 211.94953645 140.08401216 210.27914225 140.08588599 C194.60776028 140.10247303 178.93646828 140.0937377 163.26509171 140.07690042 C148.92265607 140.06220368 134.58042992 140.07682984 120.23802126 140.10567058 C105.51717605 140.13505223 90.79642757 140.1460404 76.07555431 140.13648838 C74.41093411 140.13546581 72.74631389 140.1344712 71.08169365 140.13350487 C70.26263641 140.13302848 69.44357917 140.13255209 68.59970202 140.13206126 C62.82462539 140.12989544 57.04964017 140.13971015 51.27458382 140.15427589 C44.23697384 140.17177811 37.19963097 140.17171251 30.1620316 140.14892424 C26.57042314 140.13776237 22.97928563 140.13466267 19.38769722 140.15322495 C15.49642713 140.17307745 11.60589726 140.15428852 7.71463013 140.13155365 C6.57631117 140.14338938 5.43799221 140.15522511 4.26517874 140.16741949 C-3.29794807 140.0772618 -3.29794807 140.0772618 -7.33633423 137.30845642 C-9.32772774 134.20278839 -9.76092461 132.64955638 -9.76318359 128.99370575 C-9.77583755 127.89877304 -9.78849152 126.80384033 -9.80152893 125.67572784 C-9.78983673 124.4843924 -9.77814453 123.29305695 -9.76609802 122.06562042 C-9.77325333 120.80335129 -9.78040863 119.54108215 -9.78778076 118.24056244 C-9.80627319 114.78588618 -9.79337167 111.33198306 -9.77369046 107.87733912 C-9.75728782 104.25971648 -9.76611892 100.64214218 -9.77120972 97.02449799 C-9.77572833 90.95084043 -9.75987417 84.87749108 -9.73191833 78.80390167 C-9.69985274 71.78333283 -9.6998883 64.76331936 -9.7171331 57.74271101 C-9.73299856 50.98568381 -9.72626556 44.22886011 -9.70919609 37.47184181 C-9.702326 34.59748221 -9.70335745 31.72328575 -9.71074104 28.84892845 C-9.7198272 24.83620993 -9.69586793 20.8243491 -9.66844177 16.81171417 C-9.67496765 15.61835449 -9.68149353 14.42499481 -9.68821716 13.19547272 C-9.67549271 12.10335983 -9.66276825 11.01124695 -9.6496582 9.88603973 C-9.64685128 8.9375563 -9.64404436 7.98907286 -9.64115238 7.0118475 C-8.5686329 1.69651614 -5.09756309 0.00367184 0 0 Z " fill="#B3DAFD" transform="translate(90.13499450683594,171.49663543701172)"/>
<path d="M0 0 C0.83050873 0.00444122 1.66101746 0.00888245 2.51669312 0.01345825 C3.92792953 0.01368484 3.92792953 0.01368484 5.36767578 0.01391602 C6.38542084 0.02423859 7.40316589 0.03456116 8.45175171 0.04519653 C9.49213593 0.04802643 10.53252014 0.05085632 11.60443115 0.05377197 C14.93646615 0.064992 18.26823507 0.09009989 21.60018921 0.11550903 C23.85539367 0.12553648 26.11060233 0.13466273 28.36581421 0.14285278 C33.90236375 0.16493725 39.43875748 0.19843265 44.97518921 0.24050903 C44.64987213 0.80215759 44.32455505 1.36380615 43.98937988 1.94247437 C42.85528456 4.51219862 42.73310565 6.21296752 42.74813843 9.00906372 C42.74836502 10.42007355 42.74836502 10.42007355 42.74859619 11.85958862 C42.75891876 12.86701111 42.76924133 13.87443359 42.77987671 14.91238403 C42.78412155 16.46871552 42.78412155 16.46871552 42.78845215 18.05648804 C42.79964056 21.36794604 42.82474294 24.67913287 42.85018921 27.99050903 C42.86022073 30.23659888 42.86934628 32.48269296 42.87753296 34.72879028 C42.89957556 40.2328009 42.93409646 45.736609 42.97518921 51.24050903 C47.92518921 51.24050903 52.87518921 51.24050903 57.97518921 51.24050903 C57.97518921 49.26050903 57.97518921 47.28050903 57.97518921 45.24050903 C60.3157343 41.52317271 61.62197549 39.55062051 65.97518921 38.55300903 C70.05213271 39.48730858 71.53323492 40.86486634 73.97518921 44.24050903 C74.10800171 47.92410278 74.10800171 47.92410278 73.97518921 51.24050903 C74.9999939 51.19410278 76.02479858 51.14769653 77.08065796 51.09988403 C78.44130576 51.06234892 79.80198526 51.02595062 81.16268921 50.99050903 C81.83622437 50.95699341 82.50975952 50.92347778 83.20370483 50.88894653 C86.80937212 50.81859205 88.8244801 51.14880772 91.92831421 53.03738403 C93.97518921 55.24050903 93.97518921 55.24050903 94.53768921 58.74050903 C93.97518921 62.24050903 93.97518921 62.24050903 92.51400757 64.42996216 C88.72548298 67.1317314 85.33586996 66.76903777 80.79159546 66.70925903 C79.89907578 66.71630859 79.00655609 66.72335815 78.08699036 66.73062134 C74.27442562 66.7601104 70.4623716 66.74347952 66.64974976 66.73123169 C63.86338798 66.72884998 61.07785442 66.74977535 58.29159546 66.77175903 C57.43312515 66.76043945 56.57465485 66.74911987 55.69017029 66.73745728 C51.64369278 66.77156963 49.47825841 66.94056436 45.93197632 69.05496216 C43.67422639 71.19330576 43.67422639 71.19330576 43.35018921 74.67800903 C44.14716598 79.22077661 45.34730125 80.437558 48.97518921 83.24050903 C52.00489392 83.70005723 54.47682629 83.87065674 57.49472046 83.80691528 C58.31212204 83.8125499 59.12952362 83.81818451 59.97169495 83.82398987 C62.57761319 83.84040684 65.18183089 83.82494346 67.78768921 83.80300903 C70.38268129 83.78634505 72.97653736 83.77743048 75.57154846 83.79273987 C77.18215844 83.80192494 78.79301063 83.79317637 80.40336609 83.7631073 C87.05300013 83.79510374 92.1668737 85.82359638 97.21737671 90.17019653 C102.9164085 96.95995211 104.53379678 102.30396139 104.34628296 111.20535278 C103.51954038 117.9672368 100.25253681 122.53009378 94.97518921 126.67800903 C89.96124707 130.2261818 85.82066943 131.50084926 79.66268921 131.36550903 C78.5940564 131.34746216 77.52542358 131.32941528 76.42440796 131.31082153 C75.61616577 131.28761841 74.80792358 131.26441528 73.97518921 131.24050903 C73.99194702 132.18410278 74.00870483 133.12769653 74.02597046 134.09988403 C73.97503499 137.25004669 73.71768465 138.67262102 71.97518921 141.24050903 C68.48394904 143.56800248 67.0829667 143.7435022 62.97518921 143.24050903 C60.60018921 141.74050903 60.60018921 141.74050903 58.97518921 139.24050903 C58.97518921 136.60050903 58.97518921 133.96050903 58.97518921 131.24050903 C53.36518921 131.24050903 47.75518921 131.24050903 41.97518921 131.24050903 C41.97518921 144.77050903 41.97518921 158.30050903 41.97518921 172.24050903 C38.67518921 172.57050903 35.37518921 172.90050903 31.97518921 173.24050903 C28.58245319 176.63324505 28.59903791 176.99899899 28.58750916 181.50965881 C28.57760452 182.60184219 28.56769989 183.69402557 28.55749512 184.81930542 C28.56199677 186.01783142 28.56649841 187.21635742 28.57113647 188.45120239 C28.5608416 190.34416801 28.5608416 190.34416801 28.55033875 192.27537537 C28.532374 195.73823921 28.5335819 199.20085012 28.53928113 202.6637466 C28.54236842 205.55397547 28.53628563 208.44415543 28.53024238 211.33437735 C28.51618771 218.15265717 28.51776604 224.97081172 28.52914429 231.78909302 C28.54062518 238.82436096 28.5265528 245.85924769 28.49974781 252.89446539 C28.47759898 258.93363155 28.47095159 264.97267798 28.47682422 271.01188189 C28.48019718 274.61928563 28.47775673 278.22644501 28.4605732 281.83381462 C28.44224935 285.85626277 28.45628251 289.87796812 28.47348022 293.90042114 C28.45897827 295.6951738 28.45897827 295.6951738 28.44418335 297.52618408 C28.45401749 298.62118729 28.46385162 299.71619049 28.47398376 300.84437561 C28.47419305 301.79545669 28.47440233 302.74653776 28.47461796 303.72643948 C29.16519107 307.19477456 30.04455773 308.2429987 32.97518921 310.24050903 C35.94518921 310.57050903 38.91518921 310.90050903 41.97518921 311.24050903 C41.97518921 322.46050903 41.97518921 333.68050903 41.97518921 345.24050903 C48.70989624 345.17089966 48.70989624 345.17089966 55.58065796 345.09988403 C59.16589665 345.07415105 62.75110917 345.05246317 66.33638763 345.0335083 C70.11827699 345.01240566 73.89980643 344.98421742 77.68148804 344.93875122 C81.32547371 344.89521583 84.96911085 344.8713559 88.61333656 344.86100006 C90.0020121 344.85362234 91.39066905 344.83921503 92.77919579 344.81758881 C94.72739352 344.78845887 96.67594368 344.78687432 98.62435913 344.78640747 C99.73244431 344.77752502 100.84052948 344.76864258 101.98219299 344.75949097 C105.68804278 345.35507498 107.35060647 346.59990439 109.97518921 349.24050903 C110.60018921 352.17800903 110.60018921 352.17800903 109.97518921 355.24050903 C107.45971761 358.35931968 105.96558341 360.04154558 101.98219299 360.84178162 C100.87410782 360.83067856 99.76602264 360.8195755 98.62435913 360.80813599 C97.36342941 360.80775833 96.10249969 360.80738068 94.80335999 360.80699158 C93.43744915 360.78146228 92.07154851 360.75538236 90.70565796 360.72879028 C89.30034139 360.71945762 87.89500849 360.71234365 86.4896698 360.70735168 C82.80180462 360.68831675 79.1149337 360.63924874 75.42745972 360.58383179 C71.66030323 360.53256207 67.8929851 360.50982133 64.12557983 360.48464966 C56.74161184 360.43112403 49.35866685 360.34321974 41.97518921 360.24050903 C41.97518921 366.84050903 41.97518921 373.44050903 41.97518921 380.24050903 C43.85746216 380.21432495 45.73973511 380.18814087 47.67904663 380.16116333 C53.90550206 380.08046312 60.13183351 380.02305236 66.35866833 379.98144817 C70.13323931 379.95537921 73.90724334 379.92003275 77.68148804 379.86331177 C81.32549402 379.80889223 84.96895552 379.77906817 88.61333656 379.76612282 C90.00204348 379.75690046 91.39072135 379.73889051 92.77919579 379.71185875 C94.72728665 379.67544832 96.67592812 379.67346565 98.62435913 379.67288208 C99.73244431 379.66177902 100.84052948 379.65067596 101.98219299 379.63923645 C105.97899303 380.44216639 107.48629547 382.07797352 109.97518921 385.24050903 C110.16268921 388.80300903 110.16268921 388.80300903 108.97518921 392.24050903 C104.22299804 396.96426919 99.4743284 396.69529856 92.99499512 396.69369507 C91.69166229 396.67304993 90.38832947 396.65240479 89.04550171 396.63113403 C87.68645056 396.6236651 86.32738857 396.61797525 84.96832275 396.61398315 C81.4072142 396.59877771 77.84676779 396.55954167 74.28591919 396.51516724 C70.64597693 396.47410341 67.00592353 396.45572875 63.36581421 396.43582153 C56.23502286 396.39516708 49.10604502 396.31686561 41.97518921 396.24050903 C41.97518921 405.48050903 41.97518921 414.72050903 41.97518921 424.24050903 C45.84221558 424.2300354 49.70924194 424.21956177 53.69345093 424.20877075 C66.44193964 424.1756942 79.19042766 424.15346298 91.93894768 424.13688469 C99.67159076 424.1265623 107.40419326 424.11248365 115.1368103 424.08963013 C121.87480512 424.06972564 128.61277056 424.0567996 135.35079396 424.05233204 C138.92011662 424.04971966 142.4893552 424.04355959 146.05865097 424.02904892 C150.03849642 424.01299971 154.01825884 424.01252745 157.99813843 424.01345825 C159.18784241 424.0062677 160.37754639 423.99907715 161.603302 423.9916687 C163.22294357 423.99579269 163.22294357 423.99579269 164.87530518 424 C166.28841382 423.99723462 166.28841382 423.99723462 167.73007011 423.99441338 C169.97518921 424.24050903 169.97518921 424.24050903 171.97518921 426.24050903 C172.21810913 429.02200317 172.21810913 429.02200317 172.20565796 432.52566528 C172.20372437 433.7779895 172.20179077 435.03031372 172.19979858 436.32058716 C172.18755249 437.63478638 172.1753064 438.9489856 172.16268921 440.30300903 C172.16172241 442.28010864 172.16172241 442.28010864 172.16073608 444.29714966 C172.11528044 454.10041781 172.11528044 454.10041781 170.97518921 455.24050903 C169.30494252 455.33665036 167.63060645 455.36238626 165.95759583 455.36076355 C164.87079529 455.36213821 163.78399475 455.36351288 162.66426086 455.3649292 C161.46161087 455.36133392 160.25896088 455.35773865 159.01986694 455.35403442 C157.76151031 455.35418045 156.50315369 455.35432648 155.20666504 455.35447693 C151.74607668 455.35476488 148.28552269 455.34886852 144.82494235 455.34190297 C141.2121083 455.33566906 137.59927354 455.33506561 133.98643494 455.33387756 C127.14055413 455.33076436 120.29468921 455.32255112 113.44881541 455.31252807 C105.65692332 455.3013666 97.86503048 455.2958564 90.0731324 455.29083264 C74.04047389 455.28036849 58.00783728 455.26202315 41.97518921 455.24050903 C42.30518921 469.76050903 42.63518921 484.28050903 42.97518921 499.24050903 C43.96518921 499.57050903 44.95518921 499.90050903 45.97518921 500.24050903 C45.97518921 500.57050903 45.97518921 500.90050903 45.97518921 501.24050903 C39.17590502 501.29109843 32.37666911 501.32619571 25.57723999 501.35037231 C23.26276842 501.36044795 20.94830962 501.37410878 18.63388062 501.39138794 C15.31272228 501.41556768 11.9917318 501.42697634 8.67050171 501.43582153 C7.63088287 501.4461441 6.59126404 501.45646667 5.5201416 501.46710205 C4.55929657 501.46725311 3.59845154 501.46740417 2.60848999 501.46755981 C1.76021637 501.47200104 0.91194275 501.47644226 0.03796387 501.48101807 C-2.02481079 501.24050903 -2.02481079 501.24050903 -4.02481079 499.24050903 C-4.22207662 496.53929923 -4.2924794 493.94060601 -4.27649307 491.23816681 C-4.27939995 490.39733659 -4.28230684 489.55650638 -4.2853018 488.69019645 C-4.29266403 485.84186558 -4.28562969 482.99374595 -4.27877808 480.14541626 C-4.28108005 478.09508862 -4.2842548 476.04476181 -4.28823256 473.99443674 C-4.29662537 468.33621227 -4.29243506 462.67805478 -4.28626013 457.01982999 C-4.28175488 450.92705903 -4.28870977 444.8343 -4.29421997 438.74153137 C-4.3026203 427.48759781 -4.30186275 416.23368583 -4.29639703 404.9797527 C-4.29137295 394.58455756 -4.29004923 384.1893703 -4.29244232 373.79417419 C-4.29259509 373.10558757 -4.29274786 372.41700095 -4.29290526 371.70754807 C-4.2935279 368.91260036 -4.2941647 366.11765266 -4.29482479 363.32270497 C-4.30094768 337.08492073 -4.29538812 310.84715019 -4.284631 284.60936806 C-4.27513924 261.28051579 -4.27598848 237.95168534 -4.28555298 214.62283325 C-4.296254 188.43412678 -4.30051351 162.24543242 -4.29432845 136.05672407 C-4.29368698 133.26676401 -4.2930613 130.47680394 -4.29244232 127.68684387 C-4.29228417 126.99984593 -4.29212601 126.31284799 -4.29196307 125.60503193 C-4.28968471 115.21442206 -4.29235501 104.82382093 -4.29740143 94.43321228 C-4.30310867 82.62283375 -4.30152105 70.81247607 -4.29083994 59.00209916 C-4.28556581 52.97057895 -4.28355593 46.93910317 -4.29013824 40.90758324 C-4.296064 35.39450051 -4.29287887 29.88150373 -4.28218314 24.36842889 C-4.27993469 22.3657754 -4.28111738 20.36311477 -4.28593472 18.36046582 C-4.29194846 15.65448861 -4.285848 12.94881229 -4.27649307 10.24285126 C-4.2811754 9.4513173 -4.28585774 8.65978333 -4.29068196 7.84426349 C-4.23937588 0.50355727 -4.23937588 0.50355727 0 0 Z " fill="#D7EBFD" transform="translate(53.024810791015625,-0.240509033203125)"/>
<path d="M0 0 C1.07121094 0.45826172 1.07121094 0.45826172 2.1640625 0.92578125 C21.10008141 9.48848303 33.74501969 27.68947547 41.7109375 46.16015625 C45.28177574 56.04509473 46.53416096 65.85121689 46.4375 76.3125 C46.42847656 77.49239502 46.41945313 78.67229004 46.41015625 79.88793945 C45.93194782 104.08229709 35.36170153 124.61785824 18.04296875 141.36328125 C2.17131037 155.57135277 -18.1752738 162.6313075 -39.3125 162.4375 C-40.49094482 162.42920166 -41.66938965 162.42090332 -42.88354492 162.41235352 C-66.72700041 161.95209309 -86.00889767 151.58936161 -102.69604492 134.79418945 C-119.69498172 116.87289512 -125.60239248 94.02557378 -125.26953125 69.91015625 C-124.53906644 47.34491092 -112.35578745 27.12352226 -96.2734375 11.86328125 C-69.49948885 -12.32721621 -31.74775016 -14.72981201 0 0 Z " fill="#FDDE30" transform="translate(417,350)"/>
<path d="M0 0 C9.99299503 7.81474667 17.54601868 20.6470563 19.828125 33.12109375 C21.70031092 49.86818151 18.79315131 64.75170788 9.11328125 78.671875 C8.45585937 79.65027344 8.45585937 79.65027344 7.78515625 80.6484375 C0.13917236 90.73560902 -13.74963319 98.02291901 -25.88671875 100.671875 C-44.77515369 102.37121034 -60.14160624 98.91272248 -74.88671875 86.671875 C-86.6764307 75.59962907 -92.77834123 61.99456671 -93.41040039 45.90698242 C-93.64398746 29.44864302 -88.56160234 15.73582773 -77.26171875 3.484375 C-69.91893972 -3.44492715 -60.75649583 -8.99561909 -50.88671875 -11.328125 C-50.17386719 -11.50730469 -49.46101563 -11.68648438 -48.7265625 -11.87109375 C-30.32109098 -14.83318477 -15.16154068 -10.67272015 0 0 Z " fill="#50C123" transform="translate(413.88671875,382.328125)"/>
<path d="M0 0 C1.58049385 0.01093689 1.58049385 0.01093689 3.19291687 0.02209473 C4.43784409 0.02592163 5.6827713 0.02974854 6.96542358 0.03369141 C8.38980804 0.04852154 9.8141905 0.06354481 11.23857117 0.07873535 C12.76853997 0.08772358 14.29851391 0.09586895 15.82849121 0.10327148 C20.35569162 0.12830796 24.88269796 0.16745194 29.40978241 0.20800781 C33.97950837 0.24710698 38.54928108 0.27840306 43.11906242 0.31025696 C58.55296301 0.41812892 73.98664859 0.54665477 89.42034161 0.68036556 C96.54306632 0.7420261 103.66580551 0.80193368 110.78854597 0.86174297 C125.37997669 0.9843033 139.9713871 1.10914258 154.56278992 1.23498535 C154.56278992 10.80498535 154.56278992 20.37498535 154.56278992 30.23498535 C151.79317772 31.61979145 149.55190938 31.36413449 146.45133972 31.36869812 C145.14728683 31.3729631 143.84323395 31.37722809 142.49966431 31.38162231 C141.04609677 31.38127277 139.59252926 31.38081123 138.13896179 31.38024902 C136.6148368 31.38323971 135.09071258 31.38664203 133.56658936 31.39042664 C129.42000749 31.39927902 125.27344625 31.40160524 121.12685585 31.40224242 C117.66985018 31.40319039 114.21284936 31.40686731 110.75584555 31.41041452 C102.6034378 31.41856343 94.45104111 31.42099832 86.29862976 31.42028809 C77.87688111 31.41968685 69.45519641 31.43024684 61.03346395 31.44603175 C53.81221765 31.45908641 46.59099231 31.46447287 39.36973429 31.46383268 C35.05262919 31.46357712 30.73558094 31.46646003 26.41848755 31.47701073 C22.36050319 31.48665716 18.30263043 31.48679482 14.24464226 31.47949409 C12.75225093 31.478444 11.25985278 31.48083614 9.76747322 31.48685455 C7.73640939 31.49451722 5.7053079 31.48875644 3.67424011 31.48222351 C2.53565804 31.48276828 1.39707596 31.48331305 0.22399139 31.48387432 C-2.43721008 31.23498535 -2.43721008 31.23498535 -4.43721008 29.23498535 C-4.69599915 26.56115723 -4.69599915 26.56115723 -4.70283508 23.20373535 C-4.70541321 22.00104004 -4.70799133 20.79834473 -4.71064758 19.5592041 C-4.70291321 18.29721191 -4.69517883 17.03521973 -4.68721008 15.73498535 C-4.69494446 14.47299316 -4.70267883 13.21100098 -4.71064758 11.9107666 C-4.70806946 10.70807129 -4.70549133 9.50537598 -4.70283508 8.26623535 C-4.70057922 7.15828613 -4.69832336 6.05033691 -4.69599915 4.90881348 C-4.35336199 1.36866048 -3.5851351 0.34566336 0 0 Z " fill="#0994FC" transform="translate(232.4372100830078,52.7650146484375)"/>
<path d="M0 0 C1.19473938 -0.00281982 2.38947876 -0.00563965 3.62042236 -0.00854492 C4.95642105 -0.00660033 6.29241958 -0.00455214 7.62841797 -0.00241089 C9.02594041 -0.0037649 10.42346249 -0.00554484 11.82098389 -0.00772095 C15.62666441 -0.01229527 19.43231794 -0.01050573 23.23799896 -0.00734186 C27.21205216 -0.00481826 31.18610297 -0.0071558 35.16015625 -0.00872803 C41.83512794 -0.01054972 48.51008858 -0.00814342 55.18505859 -0.00338745 C62.91321511 0.00205517 70.64134524 0.00029251 78.36950111 -0.00521386 C84.99283894 -0.00974499 91.6161688 -0.01039553 98.23950768 -0.00777519 C102.20054939 -0.00621241 106.1615787 -0.00601865 110.12261963 -0.00931168 C113.84568777 -0.0121904 117.56872176 -0.01021469 121.29178619 -0.00441742 C122.66204013 -0.00308983 124.03229692 -0.00348393 125.40254974 -0.00568008 C127.2654358 -0.00839158 129.1283281 -0.00439678 130.99121094 0 C132.03614716 0.00037703 133.08108337 0.00075405 134.15768433 0.0011425 C136.49560547 0.12698364 136.49560547 0.12698364 137.49560547 1.12698364 C137.59554079 3.18753675 137.62641453 5.25150954 137.62841797 7.31448364 C137.62970703 8.57003052 137.63099609 9.82557739 137.63232422 11.11917114 C137.63022949 11.77627075 137.62813477 12.43337036 137.62597656 13.11038208 C137.62062781 15.11859699 137.62592238 17.12658823 137.63232422 19.13479614 C137.63039062 21.01811646 137.63039062 21.01811646 137.62841797 22.93948364 C137.62729004 24.10092896 137.62616211 25.26237427 137.625 26.45901489 C137.49560547 29.12698364 137.49560547 29.12698364 136.49560547 30.12698364 C134.66297199 30.22562713 132.82649717 30.25330509 130.99121094 30.25396729 C129.79647156 30.25678711 128.60173218 30.25960693 127.37078857 30.26251221 C126.03478989 30.26056762 124.69879135 30.25851943 123.36279297 30.25637817 C121.96527053 30.25773219 120.56774845 30.25951212 119.17022705 30.26168823 C115.36454653 30.26626256 111.55889299 30.26447301 107.75321198 30.26130915 C103.77915878 30.25878554 99.80510797 30.26112308 95.83105469 30.26269531 C89.156083 30.26451701 82.48112236 30.2621107 75.80615234 30.25735474 C68.07799583 30.25191212 60.3498657 30.25367477 52.62170982 30.25918114 C45.998372 30.26371228 39.37504214 30.26436282 32.75170326 30.26174247 C28.79066154 30.2601797 24.82963224 30.25998594 20.86859131 30.26327896 C17.14552316 30.26615768 13.42248918 30.26418197 9.69942474 30.2583847 C8.32917081 30.25705711 6.95891402 30.25745121 5.58866119 30.25964737 C3.72577514 30.26235886 1.86288284 30.25836406 0 30.25396729 C-1.04493622 30.25359026 -2.08987244 30.25321323 -3.16647339 30.25282478 C-5.50439453 30.12698364 -5.50439453 30.12698364 -6.50439453 29.12698364 C-6.60432985 27.06643054 -6.63520359 25.00245774 -6.63720703 22.93948364 C-6.63849609 21.68393677 -6.63978516 20.42838989 -6.64111328 19.13479614 C-6.63901855 18.47769653 -6.63692383 17.82059692 -6.63476562 17.14358521 C-6.62941687 15.1353703 -6.63471144 13.12737905 -6.64111328 11.11917114 C-6.63982422 9.86362427 -6.63853516 8.60807739 -6.63720703 7.31448364 C-6.63551514 5.57231567 -6.63551514 5.57231567 -6.63378906 3.79495239 C-6.40325617 -0.95837477 -4.23503143 0.00152805 0 0 Z " fill="#50C125" transform="translate(87.50439453125,424.8730163574219)"/>
<path d="M0 0 C1.29647461 -0.0309375 1.29647461 -0.0309375 2.61914062 -0.0625 C8.50584971 -0.09804239 12.79737232 0.87108186 18.1875 3.25 C15.82978788 4.82180808 13.55978126 6.12620357 11.0625 7.4375 C-3.93784445 15.8600235 -11.38284856 27.20090981 -16.8125 43.25 C-17.46858513 44.92086041 -18.13164457 46.58907914 -18.8125 48.25 C-21.30611571 47.04618552 -23.49393083 45.79571278 -25.8125 44.25 C-28.92107 44.01685725 -30.82663769 44.25471256 -33.8125 45.25 C-35.25644722 50.32519415 -35.25644722 50.32519415 -33.7421875 55.140625 C-31.43850946 57.7892983 -28.95302064 60.19302687 -26.37939453 62.578125 C-19.70133374 68.77720471 -15.04885023 73.64628495 -11.94140625 82.4296875 C-10.08612838 87.06467234 -7.10777619 90.55442996 -3.8125 94.25 C-3.02939453 95.17232422 -3.02939453 95.17232422 -2.23046875 96.11328125 C2.71152195 101.53624428 8.82863127 104.72659174 15.1875 108.25 C16.6725 109.24 16.6725 109.24 18.1875 110.25 C5.5316331 115.76402776 -9.62551435 114.88465762 -22.37890625 109.92578125 C-36.78937983 102.89268322 -47.84087606 92.13866595 -54.0703125 77.2421875 C-58.70138258 63.54328788 -59.01319767 47.73213156 -53.359375 34.328125 C-45.83203594 19.3494806 -35.05084092 7.89697117 -18.8125 2.3125 C-17.48927712 1.92225263 -16.15508641 1.56729093 -14.8125 1.25 C-13.75482422 0.97736328 -13.75482422 0.97736328 -12.67578125 0.69921875 C-8.45139892 0.03645754 -4.26999272 0.02513609 0 0 Z " fill="#48A920" transform="translate(377.8125,369.75)"/>
<path d="M0 0 C43.23 0 86.46 0 131 0 C131 8.91 131 17.82 131 27 C87.77 27 44.54 27 0 27 C0 18.09 0 9.18 0 0 Z " fill="#FDFEFE" transform="translate(138,228)"/>
<path d="M0 0 C4.0769435 0.93429955 5.55804571 2.31185731 8 5.6875 C8.1328125 9.37109375 8.1328125 9.37109375 8 12.6875 C9.53720703 12.61789063 9.53720703 12.61789063 11.10546875 12.546875 C12.46611656 12.50933989 13.82679605 12.47294159 15.1875 12.4375 C15.86103516 12.40398438 16.53457031 12.37046875 17.22851562 12.3359375 C20.83418291 12.26558302 22.84929089 12.59579869 25.953125 14.484375 C28 16.6875 28 16.6875 28.5625 20.1875 C28 23.6875 28 23.6875 26.53881836 25.87695312 C22.75029378 28.57872236 19.36068075 28.21602874 14.81640625 28.15625 C13.92388657 28.16329956 13.03136688 28.17034912 12.11180115 28.1776123 C8.29923641 28.20710136 4.48718239 28.19047049 0.67456055 28.17822266 C-2.11180123 28.17584095 -4.89733479 28.19676632 -7.68359375 28.21875 C-8.54206406 28.20743042 -9.40053436 28.19611084 -10.28501892 28.18444824 C-14.33149642 28.2185606 -16.49693079 28.38755533 -20.04321289 30.50195312 C-22.30096282 32.64029673 -22.30096282 32.64029673 -22.625 36.125 C-21.82802323 40.66776758 -20.62788795 41.88454897 -17 44.6875 C-13.97029529 45.1470482 -11.49836292 45.31764771 -8.48046875 45.25390625 C-7.66306717 45.25954086 -6.84566559 45.26517548 -6.00349426 45.27098083 C-3.39757602 45.2873978 -0.79335832 45.27193443 1.8125 45.25 C4.40749208 45.23333602 7.00134815 45.22442145 9.59635925 45.23973083 C11.20696923 45.2489159 12.81782142 45.24016734 14.42817688 45.21009827 C21.07781092 45.24209471 26.19168449 47.27058735 31.2421875 51.6171875 C36.94121929 58.40694308 38.55860757 63.75095236 38.37109375 72.65234375 C37.54435117 79.41422777 34.2773476 83.97708474 29 88.125 C23.98605786 91.67317277 19.84548022 92.94784022 13.6875 92.8125 C12.61886719 92.79445313 11.55023438 92.77640625 10.44921875 92.7578125 C9.64097656 92.73460937 8.83273438 92.71140625 8 92.6875 C8.01675781 93.63109375 8.03351563 94.5746875 8.05078125 95.546875 C7.99984578 98.69703766 7.74249544 100.11961198 6 102.6875 C2.50875983 105.01499345 1.10777749 105.19049316 -3 104.6875 C-5.375 103.1875 -5.375 103.1875 -7 100.6875 C-7.21354367 98.00407737 -7.0712573 95.38431456 -7 92.6875 C-8.09699219 92.73390625 -9.19398437 92.7803125 -10.32421875 92.828125 C-11.7786185 92.8656579 -13.23304783 92.90205643 -14.6875 92.9375 C-15.40873047 92.97101563 -16.12996094 93.00453125 -16.87304688 93.0390625 C-20.72405754 93.10940059 -22.59822944 92.92940374 -25.984375 90.890625 C-28 88.6875 -28 88.6875 -28.5625 85.1875 C-28 81.6875 -28 81.6875 -26.54101562 79.50244141 C-22.75017056 76.794799 -19.33370817 77.12184133 -14.78125 77.1484375 C-13.88635864 77.13664459 -12.99146729 77.12485168 -12.06945801 77.11270142 C-9.21279497 77.07742436 -6.35686309 77.06827047 -3.5 77.0625 C-0.64335668 77.0461516 2.21295983 77.02409541 5.06945801 76.99087524 C6.84565824 76.97126628 8.62200815 76.9619081 10.39831543 76.96395874 C11.20595337 76.95699982 12.01359131 76.95004089 12.84570312 76.94287109 C13.90682312 76.94098282 13.90682312 76.94098282 14.98937988 76.9390564 C17.36885641 76.64135096 18.96304281 75.94054796 21 74.6875 C22.54586876 71.59576248 22.29359521 69.09320448 22 65.6875 C20.5770572 63.32309599 20.5770572 63.32309599 18 61.6875 C15.06924847 61.31693659 12.50420799 61.17658115 9.578125 61.21875 C8.75930847 61.21170044 7.94049194 61.20465088 7.09686279 61.1973877 C3.60412229 61.16797339 0.11194254 61.18446048 -3.38085938 61.19677734 C-5.93653018 61.19917388 -8.4913147 61.17814962 -11.046875 61.15625 C-11.82424011 61.16756958 -12.60160522 61.17888916 -13.40252686 61.19055176 C-20.29704844 61.12774083 -24.90089835 58.56137541 -30.6875 55.0625 C-35.62706375 49.98943453 -38.29265301 44.16166605 -38.5 37.0625 C-38.16508367 30.65383086 -36.84560571 25.82451713 -32.625 20.9375 C-31.75875 20.195 -30.8925 19.4525 -30 18.6875 C-29.195625 17.965625 -28.39125 17.24375 -27.5625 16.5 C-21.37631318 12.12440444 -15.29638308 12.45380802 -8 12.6875 C-8.103125 11.82125 -8.20625 10.955 -8.3125 10.0625 C-7.81753062 4.71683073 -5.33688194 1.22303544 0 0 Z " fill="#49AA24" transform="translate(119,38.3125)"/>
<path d="M0 0 C43.23 0 86.46 0 131 0 C131 8.58 131 17.16 131 26 C87.77 26 44.54 26 0 26 C0 17.42 0 8.84 0 0 Z " fill="#FEFEFF" transform="translate(138,270)"/>
<path d="M0 0 C43.23 0 86.46 0 131 0 C131 8.58 131 17.16 131 26 C87.77 26 44.54 26 0 26 C0 17.42 0 8.84 0 0 Z " fill="#FEFEFF" transform="translate(138,187)"/>
<path d="M0 0 C29.37 0 58.74 0 89 0 C89 8.91 89 17.82 89 27 C59.63 27 30.26 27 0 27 C0 18.09 0 9.18 0 0 Z " fill="#8BC9FD" transform="translate(284,228)"/>
<path d="M0 0 C0.67493828 -0.00397441 1.34987656 -0.00794881 2.04526752 -0.01204365 C4.31171754 -0.02168471 6.57754616 -0.00983825 8.84397888 0.00190735 C10.46677382 -0.00052001 12.08956726 -0.00423878 13.71235657 -0.00915527 C18.12340914 -0.0185749 22.53424024 -0.0091303 26.94527555 0.00417686 C31.55546692 0.01547553 36.16564715 0.01138512 40.77584839 0.00942993 C48.51750822 0.00854654 56.25908056 0.01963746 64.00071716 0.03804016 C72.96042729 0.05921594 81.92000927 0.06271635 90.87973934 0.0564782 C99.48840569 0.05079061 108.09702675 0.05642257 116.70568657 0.06765175 C120.37432121 0.07230501 124.04292822 0.07316846 127.71156502 0.0710659 C132.02812475 0.06918715 136.34455338 0.07725491 140.66108322 0.0931263 C142.24860911 0.09738146 143.83614828 0.09821148 145.42367744 0.0954361 C147.58402947 0.09223132 149.74398558 0.10125239 151.90429688 0.11352539 C153.72083692 0.1166047 153.72083692 0.1166047 155.57407475 0.11974621 C158.38865662 0.3742218 158.38865662 0.3742218 160.38865662 2.3742218 C159.31486755 2.89371399 158.24107849 3.41320618 157.13475037 3.94844055 C155.69839096 4.6525383 154.26220212 5.35698405 152.82615662 6.0617218 C152.12168396 6.40138977 151.4172113 6.74105774 150.69139099 7.09101868 C149.64241638 7.608255 149.64241638 7.608255 148.57225037 8.13594055 C147.93859558 8.44491272 147.3049408 8.75388489 146.65208435 9.07221985 C144.16597691 10.39316666 144.16597691 10.39316666 141.61233521 12.91516113 C136.17346536 16.78484148 129.97125636 16.07105688 123.54637146 16.02119446 C122.14459093 16.02797729 120.74281932 16.03688416 119.34106445 16.04774475 C115.54971788 16.07046212 111.75905457 16.06173481 107.96769667 16.04584932 C103.99419841 16.03315579 100.02075712 16.04493953 96.04725647 16.05278015 C89.37774692 16.0618646 82.70851465 16.04991844 76.03904724 16.02607727 C68.33221392 15.99884573 60.62604157 16.00769928 52.91922414 16.0352093 C46.29479838 16.0579073 39.67057142 16.06109783 33.04611933 16.04801595 C29.09275833 16.04022801 25.13970798 16.03916193 21.18636703 16.05569839 C17.47111269 16.07015507 13.7567102 16.06010113 10.04154778 16.03122711 C8.03036542 16.02147668 6.01911089 16.03630477 4.00796509 16.05186462 C-5.81883832 15.93640508 -5.81883832 15.93640508 -8.96031189 13.06034851 C-10.61134338 10.3742218 -10.61134338 10.3742218 -10.61134338 6.7492218 C-8.74584823 0.45317565 -6.3696465 -0.000882 0 0 Z " fill="#60B7FE" transform="translate(186.61134338378906,344.6257781982422)"/>
<path d="M0 0 C29.04 0 58.08 0 88 0 C88 8.58 88 17.16 88 26 C58.96 26 29.92 26 0 26 C0 17.42 0 8.84 0 0 Z " fill="#8AC9FE" transform="translate(284,270)"/>
<path d="M0 0 C29.04 0 58.08 0 88 0 C88 8.58 88 17.16 88 26 C58.96 26 29.92 26 0 26 C0 17.42 0 8.84 0 0 Z " fill="#8AC9FE" transform="translate(284,187)"/>
<path d="M0 0 C1.04885376 -0.00412399 2.09770752 -0.00824799 3.17834473 -0.01249695 C4.3234552 -0.00171112 5.46856567 0.00907471 6.64837646 0.02018738 C8.46341675 0.01953026 8.46341675 0.01953026 10.31512451 0.01885986 C13.6290518 0.0205912 16.94241769 0.03563106 20.25624561 0.05658174 C23.72090309 0.07534195 27.18556813 0.07709845 30.65026855 0.08065796 C37.20924455 0.08998038 43.76807044 0.11459673 50.32698035 0.14470643 C57.79486629 0.17824438 65.26275942 0.19473491 72.73070192 0.20979273 C88.09104233 0.24114619 103.45123301 0.29391041 118.8114624 0.36076355 C117.44555071 3.90319807 115.90214756 7.28704284 114.1864624 10.67326355 C113.51743896 11.99777527 113.51743896 11.99777527 112.8348999 13.3490448 C112.32829834 14.34484558 112.32829834 14.34484558 111.8114624 15.36076355 C96.495364 15.47754903 81.17928614 15.56572818 65.86284256 15.61982441 C58.75116342 15.64560964 51.63976088 15.68076561 44.52825928 15.73796082 C37.6682955 15.79310671 30.80861961 15.82216599 23.94844818 15.83514977 C21.32808655 15.84440531 18.70774107 15.86247871 16.08750153 15.88941383 C12.42385036 15.92558511 8.76139552 15.9307136 5.09759521 15.9283905 C3.46408615 15.95535507 3.46408615 15.95535507 1.7975769 15.98286438 C-5.51863213 15.93249556 -5.51863213 15.93249556 -8.8939209 13.05184937 C-10.67212332 9.35554658 -10.34230519 7.25472916 -9.1885376 3.36076355 C-6.21005357 0.46765888 -4.08905548 -0.01241616 0 0 Z " fill="#61B7FE" transform="translate(186.18853759765625,379.6392364501953)"/>
<path d="M0 0 C1.875 1.0625 1.875 1.0625 3 3 C3.57581258 6.9987736 3.9163374 9.54920366 1.72384644 13.02047729 C-0.15877464 15.18442289 -2.13137325 17.18768931 -4.19140625 19.18359375 C-5.29850197 20.29505516 -5.29850197 20.29505516 -6.42796326 21.42897034 C-7.98963704 22.98733132 -9.56120368 24.53583299 -11.1418457 26.07495117 C-13.55465044 28.42983886 -15.92791804 30.81981391 -18.29882812 33.21679688 C-19.82330596 34.72879893 -21.34993024 36.23864053 -22.87890625 37.74609375 C-23.58648575 38.45954453 -24.29406525 39.1729953 -25.02308655 39.9080658 C-28.27763542 43.04123076 -30.37840481 44.81387558 -34.77099609 46.12915039 C-38.3487094 45.98605268 -39.31055594 45.67932654 -41.78515625 43.1875 C-42.45305176 42.5378125 -43.12094727 41.888125 -43.80908203 41.21875 C-44.53208496 40.4865625 -45.25508789 39.754375 -46 39 C-47.70627961 37.39503387 -49.41334996 35.7909081 -51.12109375 34.1875 C-52.89597695 32.46115388 -54.66807629 30.7319414 -56.4375 29 C-57.34693359 28.13632812 -58.25636719 27.27265625 -59.19335938 26.3828125 C-66.4707162 19.23045882 -66.4707162 19.23045882 -67.22265625 15.0625 C-67 12 -67 12 -65 9 C-61.938025 6.95868333 -60.61604075 6.4965455 -57.02880859 7.13574219 C-52.38916766 9.11219573 -49.15324474 13.47303996 -45.8125 17.125 C-44.24748699 18.82604582 -42.67116659 20.51677996 -41.08203125 22.1953125 C-40.39343018 22.94828613 -39.7048291 23.70125977 -38.99536133 24.47705078 C-37.16687016 26.17320478 -37.16687016 26.17320478 -35.10668945 26.08349609 C-31.934385 24.4519412 -29.66063466 22.00618206 -27.2109375 19.46875 C-26.66643951 18.9176355 -26.12194153 18.366521 -25.5609436 17.79870605 C-23.82504888 16.03943029 -22.09964043 14.27030398 -20.375 12.5 C-18.64152261 10.73146891 -16.90592797 8.96509005 -15.16763306 7.20129395 C-14.08709779 6.10377159 -13.00966288 5.00318658 -11.93563843 3.89929199 C-7.62655862 -0.49605309 -6.1043434 -1.49494124 0 0 Z " fill="#FCFDFB" transform="translate(409,406)"/>
<path d="M0 0 C1.14462708 -0.01029488 1.14462708 -0.01029488 2.31237793 -0.02079773 C4.83157019 -0.03907945 7.35014048 -0.03522634 9.86938477 -0.02954102 C11.62289126 -0.03410229 13.37639597 -0.03940769 15.12989807 -0.04542542 C18.80428328 -0.05435928 22.47845118 -0.05193043 26.15283203 -0.04199219 C30.85847773 -0.03050409 35.56337285 -0.05070982 40.26891994 -0.07990932 C43.89008845 -0.0982678 47.51107698 -0.09797956 51.13228035 -0.0922718 C52.86700557 -0.09211854 54.60174294 -0.09816755 56.33642387 -0.11056328 C58.763822 -0.12546466 61.18983239 -0.11480364 63.6171875 -0.09765625 C64.68885918 -0.1121582 64.68885918 -0.1121582 65.78218079 -0.12695312 C69.30444629 -0.07492868 71.29696179 0.35714642 74.32289124 2.21665955 C76.37329102 4.40405273 76.37329102 4.40405273 76.93579102 7.90405273 C76.27384498 12.02282806 75.68433773 12.95570556 72.37329102 15.40405273 C69.63117229 15.80393912 67.28832374 15.96178083 64.54711914 15.9375 C63.76292099 15.94611557 62.97872284 15.95473114 62.17076111 15.96360779 C59.5816842 15.9862886 56.99368775 15.97952586 54.40454102 15.97045898 C52.60379718 15.97569341 50.80305609 15.98196922 49.00231934 15.98924255 C45.22952364 15.99965044 41.45710503 15.99507944 37.68432617 15.98046875 C32.84838868 15.96327422 28.01363855 15.98678187 23.17783356 16.02195835 C19.45973836 16.04391282 15.7419282 16.04249576 12.02378845 16.03419304 C10.2407857 16.03337256 8.45776221 16.04025445 6.67481995 16.05496407 C4.18229032 16.07237616 1.69190597 16.05789819 -0.80053711 16.03515625 C-1.53728165 16.04684845 -2.27402618 16.05854065 -3.03309631 16.07058716 C-6.76781939 16.00121757 -8.34006514 15.6703995 -11.11584473 13.09117126 C-12.62670898 10.40405273 -12.62670898 10.40405273 -12.62670898 6.77905273 C-10.64354102 0.08586087 -6.31508406 -0.03967815 0 0 Z " fill="#8BC9FE" transform="translate(310.626708984375,103.595947265625)"/>
<path d="M0 0 C0.70456329 -0.00700928 1.40912659 -0.01401855 2.13504028 -0.02124023 C4.45965212 -0.03881776 6.78304221 -0.02719832 9.10766602 -0.01367188 C10.72665134 -0.01636719 12.34563508 -0.02024995 13.96461487 -0.02526855 C17.35661237 -0.03116348 20.74818827 -0.02260234 24.14013672 -0.00390625 C28.4826365 0.01886554 32.82414643 0.00577215 37.16660976 -0.01819611 C40.50986652 -0.03267006 43.85288974 -0.02804056 47.19615364 -0.01768494 C48.79689718 -0.0150211 50.39766208 -0.01827537 51.99838066 -0.02760315 C54.23907239 -0.03779364 56.47817617 -0.02223482 58.71875 0 C59.99241928 0.00318237 61.26608856 0.00636475 62.57835388 0.00964355 C66.50600661 0.60592524 68.17772795 1.68903628 70.92407227 4.51757812 C71.54907227 7.45507812 71.54907227 7.45507812 70.92407227 10.51757812 C68.29277607 13.85716196 66.80628249 15.35016076 62.57835388 16.15249634 C60.66784996 16.15846329 60.66784996 16.15846329 58.71875 16.16455078 C58.01243439 16.17331238 57.30611877 16.18207397 56.57839966 16.19110107 C54.25418859 16.21302774 51.93189485 16.19857043 49.60766602 16.18164062 C47.98771297 16.18501038 46.3677624 16.18986434 44.74781799 16.19613647 C41.357512 16.20349826 37.96786586 16.19282409 34.57763672 16.16943359 C30.23375509 16.14092242 25.89141646 16.15736749 21.54759121 16.18729591 C18.20433433 16.2053688 14.86144304 16.19961153 11.51817513 16.18665695 C9.9166044 16.18332405 8.31500038 16.18740604 6.71346855 16.19905472 C4.47475189 16.21176714 2.23853083 16.19238803 0 16.16455078 C-1.27287369 16.16057281 -2.54574738 16.15659485 -3.85719299 16.15249634 C-7.07592773 15.51757812 -7.07592773 15.51757812 -9.48692322 13.16854858 C-11.43075278 9.92561586 -11.70900296 8.23689508 -11.07592773 4.51757812 C-7.86245741 0.16707927 -5.25077415 0.01312771 0 0 Z " fill="#60B7FE" transform="translate(92.075927734375,344.482421875)"/>
<path d="M0 0 C0.69495575 -0.00861557 1.3899115 -0.01723114 2.10592651 -0.02610779 C4.39261608 -0.04872579 6.67807604 -0.04203802 8.96484375 -0.03295898 C10.5599809 -0.03819616 12.15511495 -0.04447299 13.75024414 -0.05174255 C17.08917847 -0.06213875 20.42768639 -0.0575964 23.76660156 -0.04296875 C28.0408471 -0.02577409 32.31374919 -0.04928712 36.58784485 -0.08445835 C39.88050201 -0.10644038 43.17283802 -0.1049892 46.46554565 -0.09669304 C48.04118321 -0.09587409 49.61684448 -0.10272677 51.19241333 -0.11746407 C53.3973401 -0.1349286 55.59985678 -0.12035731 57.8046875 -0.09765625 C59.05757568 -0.09669449 60.31046387 -0.09573273 61.60131836 -0.09474182 C65.81080198 0.70632796 67.32282757 2.16915249 69.90234375 5.53344727 C69.96634487 9.24551241 69.91254226 11.48434164 67.2791748 14.21913147 C64.02078836 16.02092077 61.52703453 15.92176187 57.81054688 15.9375 C56.7512925 15.94779488 56.7512925 15.94779488 55.67063904 15.95829773 C53.34141819 15.976567 51.01287072 15.97272875 48.68359375 15.96704102 C47.06221294 15.97160241 45.44083407 15.97690785 43.81945801 15.98292542 C40.42334126 15.99185645 37.02745967 15.98943315 33.63134766 15.97949219 C29.27981768 15.96799555 24.92909834 15.98822399 20.57767487 16.01740932 C17.23019255 16.03575609 13.88290511 16.03548208 10.53538513 16.0297718 C8.93101361 16.02961844 7.326629 16.03567548 5.7223053 16.04806328 C3.4790662 16.06294561 1.23733265 16.05231917 -1.00585938 16.03515625 C-2.28174927 16.03499008 -3.55763916 16.03482391 -4.87219238 16.03465271 C-8.09765625 15.53344727 -8.09765625 15.53344727 -10.5057373 13.72084045 C-12.09765625 11.53344727 -12.09765625 11.53344727 -12.66015625 8.03344727 C-12.09765625 4.53344727 -12.09765625 4.53344727 -10.00610352 2.34803772 C-6.40979123 0.10428587 -4.22197751 0.02088794 0 0 Z " fill="#61B7FE" transform="translate(93.09765625,379.466552734375)"/>
<path d="M0 0 C1.47583955 0.0001591 2.95168467 0.00585225 4.42749023 0.01586914 C5.20293686 0.01728409 5.97838348 0.01869904 6.77732849 0.02015686 C9.26361893 0.02577194 11.74982059 0.03832693 14.23608398 0.05102539 C15.91772331 0.05603845 17.59936405 0.06060169 19.28100586 0.06469727 C23.41192728 0.07489707 27.5426558 0.09446934 31.67358398 0.11352539 C31.34358398 9.68352539 31.01358398 19.25352539 30.67358398 29.11352539 C19.12358398 29.11352539 7.57358398 29.11352539 -4.32641602 29.11352539 C-4.34704102 24.51415039 -4.36766602 19.91477539 -4.38891602 15.17602539 C-4.39802002 13.72333252 -4.40712402 12.27063965 -4.41650391 10.77392578 C-4.41900146 9.63947021 -4.42149902 8.50501465 -4.42407227 7.33618164 C-4.42930908 6.16837158 -4.4345459 5.00056152 -4.43994141 3.79736328 C-4.27215231 -0.16931519 -4.06467895 0.13872115 0 0 Z " fill="#47A920" transform="translate(85.326416015625,424.886474609375)"/>
<path d="M0 0 C1.47583955 0.0001591 2.95168467 0.00585225 4.42749023 0.01586914 C5.20293686 0.01728409 5.97838348 0.01869904 6.77732849 0.02015686 C9.26361893 0.02577194 11.74982059 0.03832693 14.23608398 0.05102539 C15.91772331 0.05603845 17.59936405 0.06060169 19.28100586 0.06469727 C23.41192728 0.07489707 27.5426558 0.09446934 31.67358398 0.11352539 C31.67358398 9.68352539 31.67358398 19.25352539 31.67358398 29.11352539 C26.70729964 29.13643495 21.74119736 29.15636182 16.77490234 29.16845703 C15.08414083 29.17349729 13.39338369 29.18032944 11.70263672 29.18896484 C9.27757692 29.20104396 6.85257454 29.20675662 4.42749023 29.21118164 C3.28685875 29.21892357 3.28685875 29.21892357 2.1231842 29.2268219 C0.30625828 29.22701777 -1.51054729 29.17549816 -3.32641602 29.11352539 C-5.12920793 27.31073348 -4.45678207 24.57304838 -4.45922852 22.14477539 C-4.46051758 20.9343457 -4.46180664 19.72391602 -4.46313477 18.47680664 C-4.45926758 17.20192383 -4.45540039 15.92704102 -4.45141602 14.61352539 C-4.4552832 13.33864258 -4.45915039 12.06375977 -4.46313477 10.75024414 C-4.4618457 9.53981445 -4.46055664 8.32938477 -4.45922852 7.08227539 C-4.45810059 5.96272461 -4.45697266 4.84317383 -4.45581055 3.68969727 C-4.26085756 -0.19170637 -3.99223032 0.13624859 0 0 Z " fill="#0182FC" transform="translate(232.326416015625,53.886474609375)"/>
<path d="M0 0 C5.89056711 0.01942322 11.77964091 0.07114993 17.66967773 0.15258789 C19.67252461 0.17575811 21.67549317 0.19016132 23.6784668 0.19555664 C26.56115454 0.20485333 29.44193119 0.24585906 32.32421875 0.29296875 C33.21711105 0.2890361 34.11000336 0.28510345 35.029953 0.28105164 C39.47025824 0.38482555 41.42936404 0.5684262 45.06958008 3.3215332 C47 6 47 6 47.5625 9.5625 C46.92128811 13.48101711 46.10500781 14.62558226 43 17 C39.56395235 18.71802382 35.61561104 18.1196618 31.8359375 18.09765625 C30.92872955 18.0962413 30.02152161 18.09482635 29.08682251 18.09336853 C26.18284845 18.08776096 23.27895085 18.07520718 20.375 18.0625 C18.40885528 18.05748598 16.44270935 18.0529229 14.4765625 18.04882812 C9.65098834 18.03863899 4.82558 18.01906507 0 18 C0 12.06 0 6.12 0 0 Z " fill="#E7F4FB" transform="translate(95,98)"/>
<path d="M0 0 C8.91 0 17.82 0 27 0 C27 8.91 27 17.82 27 27 C18.09 27 9.18 27 0 27 C0 18.09 0 9.18 0 0 Z " fill="#F1EFF3" transform="translate(96,228)"/>
<path d="M0 0 C8.91 0 17.82 0 27 0 C27 8.58 27 17.16 27 26 C18.09 26 9.18 26 0 26 C0 17.42 0 8.84 0 0 Z " fill="#F3F0F3" transform="translate(96,270)"/>
<path d="M0 0 C8.91 0 17.82 0 27 0 C27 8.58 27 17.16 27 26 C18.09 26 9.18 26 0 26 C0 17.42 0 8.84 0 0 Z " fill="#F3F0F3" transform="translate(96,187)"/>
<path d="M0 0 C2.64 0 5.28 0 8 0 C8 8.58 8 17.16 8 26 C5.36 26 2.72 26 0 26 C0 17.42 0 8.84 0 0 Z " fill="#FEFEFF" transform="translate(115,270)"/>
<path d="M0 0 C2.64 0 5.28 0 8 0 C8 8.58 8 17.16 8 26 C5.36 26 2.72 26 0 26 C0 17.42 0 8.84 0 0 Z " fill="#FEFEFF" transform="translate(115,228)"/>
<path d="M0 0 C2.64 0 5.28 0 8 0 C8 8.58 8 17.16 8 26 C5.36 26 2.72 26 0 26 C0 17.42 0 8.84 0 0 Z " fill="#FFFFFF" transform="translate(115,187)"/>
</svg>
